<?xml version="1.0" encoding="iso-8859-1"?>
<!-- Generator: Adobe Illustrator 19.0.0, SVG Export Plug-In . SVG Version: 6.00 Build 0)  -->
<svg version="1.1" id="Capa_1" xmlns="http://www.w3.org/2000/svg" xmlns:xlink="http://www.w3.org/1999/xlink" x="0px" y="0px"
	 viewBox="0 0 512.002 512.002" style="enable-background:new 0 0 512.002 512.002;" xml:space="preserve">
<g>
	<g>
		<path d="M436.992,75.047C388.647,26.702,324.37,0.077,256,0.077c-59.431,0-117.011,20.702-162.734,58.391L42.019,7.221
			c-5.117-5.123-12.191-7.729-19.422-7.139C15.377,0.668,8.789,4.41,4.522,10.35c-6.923,9.637-5.492,23.557,3.33,32.378
			l50.577,50.577C20.732,139.038,0.039,196.574,0.039,256.04c0,68.37,26.625,132.647,74.97,180.992
			c48.345,48.345,112.622,74.97,180.992,74.97s132.647-26.624,180.992-74.97c48.345-48.345,74.97-112.622,74.97-180.992
			S485.337,123.392,436.992,75.047z M18.458,32.121c-3.625-3.624-4.395-9.343-1.754-13.02c1.718-2.391,4.241-3.836,7.105-4.068
			c2.831-0.23,5.598,0.787,7.6,2.792l99.892,99.892c17.916,17.916,41.49,29.379,68.59,33.501
			c-20.669,11.073-37.655,28.044-48.717,48.684c-4.126-27.089-15.587-50.652-33.497-68.561L18.458,32.121z M426.385,426.425
			c-45.512,45.512-106.022,70.576-170.386,70.576s-124.874-25.064-170.386-70.576c-45.512-45.512-70.575-106.022-70.575-170.386
			c0-55.497,19.152-109.202,54.055-152.07l25.886,25.886c-59.622,75.872-58.051,183.463,4.383,257.678
			c1.483,1.764,3.606,2.672,5.743,2.672c1.704,0,3.418-0.578,4.824-1.761c3.17-2.667,3.578-7.398,0.911-10.567
			c-57.461-68.303-59.277-167.11-5.166-237.326l1.396,1.396c17.437,17.437,27.919,41.194,30.313,68.703
			c0.186,2.142,0.476,4.312,0.861,6.453c0.587,3.262,1.438,6.513,2.524,9.667c-0.445,1.76-0.866,3.53-1.232,5.32
			c-0.831,4.058,1.786,8.021,5.844,8.851c0.507,0.104,1.013,0.154,1.511,0.154c3.488,0,6.613-2.447,7.34-5.998
			c8.172-39.936,39.158-71.503,78.94-80.421c4.042-0.906,6.584-4.917,5.678-8.959s-4.918-6.587-8.959-5.678
			c-1.067,0.239-2.122,0.507-3.177,0.774c-3.155-1.084-6.387-1.941-9.649-2.528c-2.14-0.385-4.312-0.675-6.453-0.861
			c-27.509-2.394-51.266-12.875-68.703-30.312l-1.396-1.396c70.216-54.111,169.022-52.295,237.326,5.166
			c1.406,1.183,3.12,1.761,4.824,1.761c2.137,0,4.26-0.909,5.743-2.672c2.667-3.169,2.259-7.901-0.911-10.567
			c-74.215-62.435-181.805-64.006-257.678-4.383l-25.89-25.89C146.785,34.234,200.534,15.08,256,15.08
			c64.363,0,124.874,25.064,170.386,70.576c45.512,45.512,70.576,106.022,70.576,170.386
			C496.962,320.406,471.897,380.913,426.385,426.425z"/>
	</g>
</g>
<g>
	<g>
		<path d="M412.637,124.546c-2.666-3.17-7.398-3.578-10.567-0.911c-3.17,2.667-3.578,7.398-0.911,10.567
			c30.423,36.164,46.126,82.182,44.217,129.58c-1.921,47.677-21.574,92.529-55.339,126.294s-78.617,53.418-126.294,55.339
			c-47.391,1.91-93.416-13.793-129.58-44.216c-3.169-2.666-7.9-2.258-10.567,0.911c-2.667,3.169-2.259,7.901,0.911,10.567
			c36.908,31.049,83.319,47.894,131.501,47.894c2.774,0,5.554-0.056,8.339-0.168c51.454-2.073,99.859-23.282,136.297-59.72
			s57.647-84.843,59.721-136.297C462.424,213.242,445.475,163.579,412.637,124.546z"/>
	</g>
</g>
<g>
	<g>
		<path d="M275.019,387.922l-9.282-21.419c-1.647-3.801-6.064-5.546-9.864-3.9c-3.801,1.647-5.547,6.063-3.9,9.864l9.282,21.419
			c1.227,2.829,3.987,4.52,6.886,4.52c0.995,0,2.007-0.199,2.978-0.62C274.92,396.139,276.666,391.723,275.019,387.922z"/>
	</g>
</g>
<g>
	<g>
		<path d="M307.472,350.44l-18.563-7.854c-3.815-1.614-8.215,0.17-9.83,3.985c-1.614,3.815,0.171,8.216,3.985,9.83l18.563,7.854
			c0.954,0.404,1.944,0.595,2.919,0.595c2.922,0,5.7-1.719,6.911-4.58C313.071,356.455,311.287,352.054,307.472,350.44z"/>
	</g>
</g>
<g>
	<g>
		<path d="M262.642,298.499c-4.112-0.514-7.859,2.402-8.372,6.512l-3.57,28.559c-0.514,4.11,2.401,7.858,6.512,8.372
			c0.316,0.04,0.629,0.059,0.939,0.059c3.728,0,6.958-2.776,7.433-6.571l3.57-28.559
			C269.668,302.761,266.753,299.013,262.642,298.499z"/>
	</g>
</g>
<g>
	<g>
		<path d="M302.516,307.638c-2.612-3.215-7.336-3.703-10.55-1.091l-11.423,9.282c-3.215,2.612-3.703,7.335-1.091,10.55
			c1.482,1.824,3.644,2.77,5.825,2.77c1.662,0,3.335-0.549,4.725-1.679l11.423-9.282
			C304.64,315.576,305.128,310.853,302.516,307.638z"/>
	</g>
</g>
<g>
	<g>
		<path d="M344.37,352.456l-9.282-23.561c-1.518-3.854-5.873-5.748-9.727-4.229c-3.854,1.518-5.747,5.873-4.229,9.727l9.282,23.561
			c1.163,2.952,3.989,4.753,6.98,4.753c0.915,0,1.845-0.168,2.747-0.524C343.995,360.665,345.888,356.31,344.37,352.456z"/>
	</g>
</g>
<g>
	<g>
		<path d="M331.64,269.468c-3.974-1.159-8.141,1.124-9.301,5.1l-4.998,17.135c-1.16,3.977,1.124,8.14,5.1,9.3
			c0.701,0.205,1.408,0.302,2.104,0.302c3.248,0,6.241-2.127,7.197-5.402l4.998-17.135
			C337.9,274.791,335.616,270.628,331.64,269.468z"/>
	</g>
</g>
<g>
	<g>
		<path d="M305.361,278.305l-19.277-17.849c-3.041-2.814-7.785-2.63-10.599,0.408c-2.814,3.04-2.631,7.785,0.408,10.599
			l19.277,17.848c1.443,1.336,3.271,1.997,5.094,1.997c2.017,0,4.027-0.809,5.505-2.404
			C308.583,285.864,308.4,281.119,305.361,278.305z"/>
	</g>
</g>
<g>
	<g>
		<path d="M253.571,272.917c-2.86-2.995-7.607-3.106-10.604-0.246l-15.708,14.993c-2.996,2.86-3.106,7.607-0.247,10.604
			c1.474,1.543,3.448,2.321,5.426,2.321c1.861,0,3.725-0.688,5.178-2.075l15.708-14.993
			C256.32,280.661,256.43,275.914,253.571,272.917z"/>
	</g>
</g>
<g>
	<g>
		<path d="M228.856,319.456c-3.971-1.177-8.145,1.089-9.321,5.061l-5.711,19.277c-1.176,3.971,1.089,8.144,5.061,9.321
			c0.711,0.211,1.428,0.311,2.133,0.311c3.236,0,6.222-2.111,7.188-5.372l5.711-19.277
			C235.094,324.806,232.828,320.632,228.856,319.456z"/>
	</g>
</g>
<g>
	<g>
		<path d="M232.153,374.134l-24.989-1.428c-4.134-0.236-7.679,2.924-7.916,7.06s2.925,7.68,7.06,7.916l24.989,1.428
			c0.146,0.008,0.29,0.012,0.435,0.012c3.946,0,7.253-3.083,7.481-7.072C239.449,377.915,236.288,374.371,232.153,374.134z"/>
	</g>
</g>
<g>
	<g>
		<path d="M320.87,389.966l-16.421-8.568c-3.672-1.917-8.203-0.493-10.119,3.18c-1.916,3.673-0.492,8.203,3.18,10.119l16.421,8.568
			c1.108,0.578,2.294,0.852,3.463,0.852c2.705,0,5.318-1.468,6.656-4.032C325.966,396.413,324.542,391.882,320.87,389.966z"/>
	</g>
</g>
<g>
	<g>
		<path d="M377.152,330.106c-4.005-1.059-8.11,1.327-9.169,5.332l-6.426,24.275c-1.06,4.003,1.327,8.109,5.331,9.169
			c0.643,0.17,1.289,0.251,1.924,0.251c3.32,0,6.356-2.222,7.246-5.583l6.426-24.275
			C383.544,335.271,381.157,331.166,377.152,330.106z"/>
	</g>
</g>
<g>
	<g>
		<path d="M374.947,290.767c-2.86-2.996-7.607-3.107-10.604-0.247l-15.708,14.993c-2.996,2.86-3.106,7.607-0.247,10.604
			c1.474,1.543,3.448,2.321,5.426,2.321c1.861,0,3.725-0.688,5.178-2.075l15.708-14.992
			C377.696,298.511,377.806,293.764,374.947,290.767z"/>
	</g>
</g>
<g>
	<g>
		<path d="M415.091,281.852c-3.446-2.297-8.102-1.367-10.4,2.08l-12.852,19.277c-2.298,3.446-1.367,8.103,2.08,10.4
			c1.279,0.853,2.724,1.261,4.153,1.261c2.423,0,4.802-1.173,6.247-3.341l12.852-19.277
			C419.469,288.806,418.538,284.149,415.091,281.852z"/>
	</g>
</g>
<g>
	<g>
		<path d="M360.723,234.914c-4.136-0.271-7.701,2.868-7.967,7.001l-1.428,22.133c-0.267,4.134,2.868,7.701,7.001,7.967
			c0.164,0.011,0.327,0.017,0.49,0.017c3.921,0,7.221-3.049,7.477-7.018l1.428-22.133
			C367.991,238.747,364.856,235.18,360.723,234.914z"/>
	</g>
</g>
<g>
	<g>
		<path d="M403.111,228.794c-3.963-1.201-8.151,1.038-9.353,5.003l-7.14,23.561c-1.201,3.964,1.039,8.151,5.003,9.353
			c0.725,0.22,1.457,0.324,2.178,0.324c3.218,0,6.193-2.088,7.175-5.327l7.14-23.561
			C409.315,234.183,407.075,229.995,403.111,228.794z"/>
	</g>
</g>
<g>
	<g>
		<path d="M380.646,209.207l-25.703-1.428c-4.136-0.222-7.675,2.937-7.904,7.072c-0.23,4.136,2.937,7.675,7.072,7.904l25.703,1.428
			c0.142,0.008,0.283,0.012,0.423,0.012c3.952,0,7.26-3.09,7.481-7.084C387.948,212.975,384.781,209.436,380.646,209.207z"/>
	</g>
</g>
<g>
	<g>
		<path d="M330.434,232.69l-15.708-14.994c-2.996-2.86-7.743-2.751-10.604,0.246c-2.86,2.997-2.75,7.744,0.247,10.604l15.708,14.994
			c1.453,1.386,3.316,2.075,5.178,2.075c1.978,0,3.953-0.778,5.426-2.321C333.541,240.297,333.431,235.55,330.434,232.69z"/>
	</g>
</g>
<g>
	<g>
		<path d="M297.883,235.367l-17.849-11.424c-3.487-2.231-8.126-1.216-10.36,2.274c-2.233,3.489-1.215,8.127,2.274,10.36
			l17.849,11.424c1.252,0.801,2.652,1.184,4.036,1.184c2.472,0,4.892-1.221,6.324-3.458
			C302.39,242.238,301.372,237.6,297.883,235.367z"/>
	</g>
</g>
<g>
	<g>
		<path d="M251.802,241.532c-2.056-3.597-6.637-4.845-10.233-2.79l-19.991,11.423c-3.596,2.055-4.846,6.636-2.791,10.233
			c1.384,2.422,3.915,3.78,6.519,3.78c1.262,0,2.541-0.319,3.714-0.99l19.991-11.423
			C252.607,249.71,253.857,245.129,251.802,241.532z"/>
	</g>
</g>
<g>
	<g>
		<path d="M257.897,414.573l-24.989-9.281c-3.882-1.443-8.2,0.536-9.642,4.419c-1.443,3.884,0.536,8.201,4.419,9.643l24.989,9.281
			c0.861,0.32,1.743,0.471,2.61,0.471c3.045,0,5.909-1.869,7.032-4.891C263.758,420.332,261.779,416.015,257.897,414.573z"/>
	</g>
</g>
<g>
	<g>
		<path d="M333.29,197.933l-4.284-19.277c-0.899-4.043-4.903-6.59-8.948-5.694c-4.043,0.898-6.593,4.905-5.694,8.948l4.284,19.277
			c0.776,3.495,3.876,5.874,7.314,5.874c0.539,0,1.086-0.059,1.634-0.18C331.639,205.983,334.189,201.976,333.29,197.933z"/>
	</g>
</g>
<g>
	<g>
		<path d="M369.685,187.859l-4.998-21.419c-0.941-4.034-4.975-6.542-9.008-5.6c-4.034,0.941-6.541,4.974-5.6,9.008l4.999,21.42
			c0.808,3.461,3.89,5.797,7.297,5.797c0.564,0,1.138-0.064,1.71-0.198C368.119,195.926,370.626,191.893,369.685,187.859z"/>
	</g>
</g>
<g>
	<g>
		<path d="M406.816,188.847l-9.282-17.135c-1.973-3.642-6.524-4.995-10.167-3.022c-3.642,1.973-4.995,6.525-3.022,10.167
			l9.282,17.135c1.358,2.507,3.938,3.929,6.602,3.929c1.206,0,2.43-0.292,3.565-0.907
			C407.436,197.041,408.789,192.489,406.816,188.847z"/>
	</g>
</g>
<g>
	<g>
		<path d="M301.757,189.615c-1.155-3.978-5.316-6.265-9.294-5.111l-22.133,6.426c-3.978,1.155-6.266,5.316-5.111,9.294
			c0.952,3.279,3.948,5.411,7.199,5.411c0.692,0,1.396-0.097,2.095-0.299l22.133-6.426
			C300.623,197.754,302.911,193.593,301.757,189.615z"/>
	</g>
</g>
<g>
	<g>
		<path d="M343.037,128.387c-3.424-2.33-8.09-1.441-10.419,1.984l-12.137,17.849c-2.329,3.425-1.441,8.09,1.984,10.419
			c1.291,0.878,2.758,1.299,4.21,1.299c2.399,0,4.758-1.149,6.209-3.283l12.137-17.849
			C347.351,135.381,346.462,130.716,343.037,128.387z"/>
	</g>
</g>
<g>
	<g>
		<path d="M298.386,152.042l-24.989-11.423c-3.767-1.722-8.217-0.065-9.939,3.703c-1.722,3.767-0.064,8.217,3.703,9.939
			l24.989,11.423c1.011,0.462,2.07,0.681,3.114,0.681c2.845,0,5.565-1.627,6.826-4.384
			C303.811,158.214,302.153,153.764,298.386,152.042z"/>
	</g>
</g>
<g>
	<g>
		<path d="M231.868,107.77l-11.422-14.279c-2.588-3.236-7.307-3.76-10.542-1.171c-3.234,2.587-3.759,7.307-1.171,10.542
			l11.423,14.279c1.481,1.852,3.661,2.815,5.861,2.815c1.643,0,3.297-0.538,4.68-1.644
			C233.931,115.725,234.456,111.005,231.868,107.77z"/>
	</g>
</g>
<g>
	<g>
		<path d="M273.212,90.551c-2.633-3.196-7.359-3.654-10.558-1.021l-12.137,9.996c-3.197,2.633-3.655,7.36-1.021,10.558
			c1.483,1.8,3.63,2.731,5.794,2.731c1.678,0,3.367-0.561,4.764-1.71l12.137-9.996C275.388,98.476,275.846,93.749,273.212,90.551z"
			/>
	</g>
</g>
<g>
	<g>
		<path d="M317.121,102.999c-2.857-3-7.604-3.116-10.604-0.259l-14.994,14.279c-3,2.856-3.115,7.604-0.259,10.604
			c1.475,1.548,3.452,2.328,5.433,2.328c1.858,0,3.72-0.686,5.171-2.069l14.994-14.279
			C319.862,110.747,319.977,105.999,317.121,102.999z"/>
	</g>
</g>
<g>
	<g>
		<path d="M245.374,168.653c-4.055-0.838-8.023,1.776-8.858,5.833l-4.998,24.275c-0.835,4.057,1.777,8.023,5.834,8.858
			c0.51,0.105,1.019,0.156,1.52,0.156c3.484,0,6.608-2.442,7.338-5.989l4.997-24.275
			C252.042,173.454,249.431,169.488,245.374,168.653z"/>
	</g>
</g>
<g>
	<g>
		<path d="M220.867,219.015l-12.138-18.563c-2.267-3.467-6.916-4.44-10.382-2.173c-3.467,2.267-4.439,6.915-2.173,10.382
			l12.138,18.564c1.439,2.201,3.837,3.396,6.284,3.396c1.408,0,2.832-0.396,4.098-1.224
			C222.161,227.13,223.133,222.482,220.867,219.015z"/>
	</g>
</g>
<g>
	<g>
		<path d="M197.856,240.616l-17.135,0.714c-4.139,0.172-7.354,3.667-7.182,7.806c0.168,4.032,3.49,7.188,7.489,7.188
			c0.105,0,0.211-0.002,0.317-0.006l17.135-0.714c4.139-0.172,7.354-3.667,7.182-7.806
			C205.489,243.659,201.986,240.439,197.856,240.616z"/>
	</g>
</g>
<g>
	<g>
		<path d="M206.872,299.124l-6.426-25.703c-1.005-4.019-5.078-6.466-9.095-5.457c-4.019,1.004-6.462,5.077-5.457,9.095l6.426,25.703
			c0.852,3.408,3.91,5.683,7.27,5.683c0.602,0,1.214-0.073,1.825-0.226C205.434,307.215,207.877,303.142,206.872,299.124z"/>
	</g>
</g>
<g>
	<g>
		<path d="M197.271,325.862c-2.799-3.053-7.543-3.259-10.597-0.461l-17.135,15.708c-3.054,2.799-3.26,7.543-0.461,10.597
			c1.479,1.614,3.501,2.432,5.531,2.432c1.811,0,3.626-0.652,5.066-1.971l17.135-15.708
			C199.863,333.66,200.07,328.915,197.271,325.862z"/>
	</g>
</g>
<g>
	<g>
		<path d="M187.747,399.154l-3.57-25.703c-0.569-4.103-4.358-6.96-8.46-6.397c-4.103,0.57-6.967,4.358-6.397,8.46l3.57,25.703
			c0.521,3.753,3.735,6.469,7.419,6.469c0.343,0,0.691-0.024,1.041-0.072C185.453,407.044,188.317,403.256,187.747,399.154z"/>
	</g>
</g>
<g>
	<g>
		<path d="M153.232,349.002l-22.133-9.282c-3.818-1.601-8.215,0.196-9.817,4.016c-1.602,3.82,0.197,8.216,4.017,9.818l22.133,9.282
			c0.947,0.397,1.93,0.585,2.897,0.585c2.931,0,5.715-1.729,6.919-4.602C158.85,354.999,157.052,350.604,153.232,349.002z"/>
	</g>
</g>
<g>
	<g>
		<path d="M176.78,297.843c-2.107-3.565-6.705-4.748-10.272-2.642l-15.707,9.281c-3.566,2.107-4.749,6.706-2.642,10.272
			c1.4,2.369,3.898,3.686,6.464,3.686c1.296,0,2.611-0.336,3.808-1.044l15.707-9.281
			C177.704,306.008,178.887,301.408,176.78,297.843z"/>
	</g>
</g>
<g>
	<g>
		<path d="M128.38,297.059l-19.277-14.279c-3.328-2.465-8.026-1.766-10.491,1.562c-2.465,3.329-1.766,8.025,1.562,10.491
			l19.277,14.279c1.342,0.994,2.907,1.474,4.458,1.474c2.296,0,4.562-1.05,6.033-3.036
			C132.407,304.221,131.708,299.525,128.38,297.059z"/>
	</g>
</g>
<g>
	<g>
		<path d="M153.305,260.762l-27.131-5.712c-4.056-0.858-8.03,1.741-8.884,5.794c-0.853,4.053,1.741,8.031,5.794,8.884l27.131,5.712
			c0.521,0.11,1.041,0.163,1.552,0.163c3.472,0,6.588-2.424,7.332-5.957C159.952,265.593,157.358,261.615,153.305,260.762z"/>
	</g>
</g>
<g>
	<g>
		<path d="M117.242,224.455c-3.207-2.622-7.932-2.15-10.554,1.055l-12.852,15.708c-2.623,3.206-2.15,7.931,1.055,10.554
			c1.394,1.14,3.075,1.695,4.745,1.695c2.171,0.001,4.326-0.938,5.809-2.75l12.852-15.708
			C120.92,231.803,120.447,227.078,117.242,224.455z"/>
	</g>
</g>
<g>
	<g>
		<path d="M109.039,177.228c-4.051-0.853-8.031,1.74-8.884,5.794l-2.856,13.565c-0.854,4.053,1.74,8.031,5.794,8.884
			c0.521,0.11,1.041,0.163,1.553,0.163c3.471,0,6.587-2.424,7.332-5.957l2.855-13.565
			C115.687,182.059,113.093,178.081,109.039,177.228z"/>
	</g>
</g>
<g>
	<g>
		<path d="M352.696,373.613c-4.031-0.958-8.074,1.53-9.033,5.559l-3.57,14.994c-0.961,4.028,1.528,8.072,5.558,9.032
			c0.584,0.139,1.168,0.206,1.744,0.206c3.393,0,6.469-2.319,7.29-5.764l3.57-14.994
			C359.214,378.616,356.726,374.572,352.696,373.613z"/>
	</g>
</g>
<g>
	<g>
		<path d="M193.991,97.35c-3.611-2.031-8.183-0.75-10.214,2.86l-6.425,11.423c-2.03,3.61-0.75,8.183,2.86,10.214
			c1.163,0.654,2.425,0.964,3.67,0.964c2.622,0,5.167-1.377,6.544-3.825l6.425-11.423C198.882,103.954,197.601,99.381,193.991,97.35
			z"/>
	</g>
</g>
<g>
</g>
<g>
</g>
<g>
</g>
<g>
</g>
<g>
</g>
<g>
</g>
<g>
</g>
<g>
</g>
<g>
</g>
<g>
</g>
<g>
</g>
<g>
</g>
<g>
</g>
<g>
</g>
<g>
</g>
</svg>
